<svg id="Layer_1" data-name="Layer 1" xmlns="http://www.w3.org/2000/svg" viewBox="0 0 673.21 93.54"><defs><style>.cls-1{fill:#80a4b3;}</style></defs><title>Jacquie_Lawson_Logo</title><path class="cls-1" d="M0,70.84A6.24,6.24,0,0,1,3.35,67.7a2.13,2.13,0,0,1,2.51.39,8.2,8.2,0,0,1,1.93,2.58A8.36,8.36,0,0,0,15.9,75c6.3-.86,10.67-4.58,13.85-9.94,3-5.16,4.94-10.85,6.6-16.59,2.5-8.6,5.2-17.14,7.5-25.8C45,18.39,46,14.13,46.79,9.81c.13-.74.17-1.07-.83-1a54.89,54.89,0,0,0-15.23,3.69,9.67,9.67,0,0,1-1.74.52C26,13.65,24.07,11.33,25,8.41a6.14,6.14,0,0,1,3.92-4,33.15,33.15,0,0,1,9-1.6c3.14-.23,6.29-.33,9.43-.47a1,1,0,0,0,.94-.48C49.6,0,50.44-.3,52.6.24a3.24,3.24,0,0,1,1.68.67C55.37,2.1,56.68,2,58,1.63,60.32,1,62.72,1.17,65.1,1,67.82.83,70.56.83,73.29.78A9.53,9.53,0,0,1,75.21,1a3.07,3.07,0,0,1,2.7,2.2,4.86,4.86,0,0,1-.8,4.2c-.47.66-1.19.43-1.8.34a47.76,47.76,0,0,0-9.1-.38c-3.29.17-6.58.46-9.88.64-.61,0-.75.37-.89.84-2.12,6.81-4.3,13.6-6.36,20.42-3,10-5.77,20.05-9.2,29.9A40.77,40.77,0,0,1,30.6,74.61c-3.25,3.3-7,5.94-11.58,6.84A18.35,18.35,0,0,1,3.46,77.68a12.55,12.55,0,0,1-3.46-5Z"></path><path class="cls-1" d="M208.11,36.67a15.46,15.46,0,0,0-6.78-11.38,22.86,22.86,0,0,0-12.11-3.52,14.08,14.08,0,0,0-6.16.87c-2,.87-3.66,2.09-3.94,4.54-.05.44-.38.66-.64.93a54.78,54.78,0,0,0-7.73,9.31c-3.17,4.8-5.94,9.78-6.71,15.66a1,1,0,0,1-.57.81c-6.23,4-12.56,7.76-19.71,9.8a23.83,23.83,0,0,1-10.81.82c-3.31-.59-5.59-3-5.53-6.13a22.2,22.2,0,0,1,3-11,61.43,61.43,0,0,1,11.73-14.66,13.32,13.32,0,0,1,5.66-3.37c1.66-.41,2.69.47,2.57,2.21a10.73,10.73,0,0,1-1,3.8,57.11,57.11,0,0,0-2.72,5.9,3,3,0,0,0,1.28,3.81c1.68,1.16,3.46.86,5.26.33a2.06,2.06,0,0,0,1.39-1.25,50,50,0,0,0,3.15-10,13.69,13.69,0,0,0,.23-5.77A6.75,6.75,0,0,0,151,22.64a17.62,17.62,0,0,0-8.08,2.17,42.3,42.3,0,0,0-14.16,11.91c-4.07,5.17-7.67,10.65-9.39,17.18a1,1,0,0,1-.49.6,79.7,79.7,0,0,1-11.29,6.08,4.44,4.44,0,0,1-2.66.36c-2-.45-3.07-1.89-3.1-4.41-.06-4.15,1.37-7.92,2.84-11.69,1-2.65,2.58-5.09,3-8,.5-3.36,0-4.57-3-6.09a6.64,6.64,0,0,0-2.73-.75,1.78,1.78,0,0,1-1.47-.89c-3.56-4.87-10.31-7-16-3.49A84.42,84.42,0,0,0,70.19,36.3c-7.33,7-12.56,15.55-16.58,24.9a18.38,18.38,0,0,0-1.29,4.22,4.45,4.45,0,0,0,3,5.31,8.54,8.54,0,0,0,4.17.23c4.05-.77,7.55-2.84,10.92-5.09,8.45-5.63,15.9-12.51,23.23-19.54a9.7,9.7,0,0,1,2.22-1.92c-.11.36-.14.5-.19.64a28.21,28.21,0,0,0-1,14.6c.77,3.65,2.36,6.75,6.13,8a9.33,9.33,0,0,0,6.45-.53,65.15,65.15,0,0,0,10.63-5.32c.6-.36.84-.42,1,.45a10.78,10.78,0,0,0,5.44,7.54A17,17,0,0,0,132.44,72c7.88.24,15.14-2.08,22-5.76,3.47-1.85,6.8-4,10.11-6.06.06.06.1.08.12.11,2.34,5.52,6.55,8.48,12.26,9.39.64.11.59.44.44.91a56.22,56.22,0,0,0-2.3,12.22,20.55,20.55,0,0,0,.35,7,4.73,4.73,0,0,0,3.83,3.71c1.81.32,2.59-.52,2.3-2.36a22.82,22.82,0,0,1-.37-4.51c.2-5.84,2.09-11.27,3.68-16.78a.94.94,0,0,1,.73-.64c6.6-2.12,11.82-6.3,16.05-11.78C206.34,51.34,209.2,44.62,208.11,36.67ZM94.82,35.12a3.34,3.34,0,0,1-1.51,2.57c-1.88,1.62-3.42,3.67-5.41,5.18-4.68,3.56-8.35,8.27-13,11.89a99.45,99.45,0,0,1-11.48,8c-.69.41-1.56,1.12-2.29.36s.13-1.53.44-2.22A67.46,67.46,0,0,1,77,39.29a60,60,0,0,1,10.53-7.92,13.26,13.26,0,0,1,1.88-.86C92.4,29.43,95,31.46,94.82,35.12ZM198.16,52.53a27.41,27.41,0,0,1-9.79,10.37l-1.45.79c.94-3,1.84-5.72,2.63-8.47s1.4-5.35.74-8.14c-.95-4-5.3-5.64-8.15-3.11a4.85,4.85,0,0,0-1.75,4.73,32.77,32.77,0,0,1-1,15.2c-.26.87-.64.72-1.23.48a9.86,9.86,0,0,1-5.79-10.46c.82-6.46,3.77-11.82,7.78-16.69a42.11,42.11,0,0,1,4.77-4.86c.4-.35.79-.71,1.41-.47,4.07,1.58,8.31,1.76,12.58,1.58,1.21,0,1.66.45,1.93,1.55A23,23,0,0,1,198.16,52.53Z"></path><path class="cls-1" d="M532.31,29.91A2.53,2.53,0,0,0,531,27.5a5.23,5.23,0,0,0-7.08,4.38c-.16,3-.35,6-.69,9a66.12,66.12,0,0,1-4.33,18c-1.19,2.89-3.84,3.44-6,1.27a8.78,8.78,0,0,1-1.66-2.21,43.15,43.15,0,0,1-3.47-9.36A77.94,77.94,0,0,1,506.35,40c-.37-2.6-2.3-3.91-4.77-3.26a7.38,7.38,0,0,0-3.76,2.7c-4.64,5.67-9.17,11.44-14.47,16.5a23.16,23.16,0,0,1-4,3.22c-.48.28-1,.75-1.56.34s-.45-1-.42-1.62a7.66,7.66,0,0,1,.86-2.76c3.31-7.12,6.68-14.22,10.56-21,1.46-2.58,3.13-5.09,3.95-8a3.6,3.6,0,0,0-2.16-4.65,10.07,10.07,0,0,0-5.95-.32,1.87,1.87,0,0,0-1.55,2.5,13.88,13.88,0,0,1-1.6,9.22c-3.59,6.77-7,13.61-10.25,20.57a2,2,0,0,1-.65.95c-3.88,2.36-7.72,4.83-12,6.41-2.62,1-4.68-.3-5.24-3.11a8,8,0,0,1-.13-1.62A31.6,31.6,0,0,1,456,44.88c1.32-3.2,3.08-6.24,3.25-9.87a2.94,2.94,0,0,0-.88-2.59A8.39,8.39,0,0,0,453.34,30a1.82,1.82,0,0,1-1.48-.86c-3.56-4.92-10.37-7.07-16.12-3.48a84.48,84.48,0,0,0-14.21,10.7,69.6,69.6,0,0,0-14,19.46,3.71,3.71,0,0,1-.92,1.44c0-.64,0-1.11,0-1.57-.06-.84-.24-1.69-1.07-2a1.92,1.92,0,0,0-2.26.68c-2.54,2.86-5.78,4.66-9.11,6.29a36.89,36.89,0,0,1-18.24,4.18c-3.13-.17-4.69-1.91-4.69-5.12a31.89,31.89,0,0,1,1.08-7.59c1.86-7.73,5-15,7.92-22.33,2.63-6.63,5.47-13.16,7.48-20a7.09,7.09,0,0,0,.58-3.05,4,4,0,0,0-4-3.82c-2.27-.15-3.5.8-4.09,3.29-.47,2-.53,4.07-1.05,6.07-1.18,4.5-3.21,8.64-4.86,13-3.09,8-6.57,15.89-9,24.15A44.77,44.77,0,0,0,363,65.15c.25,4,2.3,6.57,6.06,7.44a17.83,17.83,0,0,0,6,.25,53.11,53.11,0,0,0,11-2.48c6.58-2.16,12.9-4.85,18.49-9.11.28-.12.34,0,.28.27a26.23,26.23,0,0,0-1.1,3.8,4.48,4.48,0,0,0,3.68,5.57,10,10,0,0,0,5.38-.4A43,43,0,0,0,424.59,64a193.59,193.59,0,0,0,21.46-18.63,2.32,2.32,0,0,1,1.24-.77,27.74,27.74,0,0,0-1.17,15.08c.78,3.65,2.37,6.75,6.15,8a9.4,9.4,0,0,0,6.45-.54,63.91,63.91,0,0,0,8.39-4c-.16.71-.3,1.26-.41,1.83-.75,3.92,1.63,6.86,5.29,6.52a6.67,6.67,0,0,0,3.2-1.15,100.73,100.73,0,0,0,13.64-11.46c2.88-2.82,5.56-5.86,8.38-8.74,1.25-1.28,2-1.08,2.75.58,1,2.38,1.94,4.81,3,7.19,1.52,3.45,3.06,6.88,6.13,9.26a12.06,12.06,0,0,0,6.71,2.92c3.82.24,7.13-2.06,8.8-6.15A72.36,72.36,0,0,0,528,52.87c1.37-5.94,2.17-12,3.44-17.94C531.81,33.27,532.46,31.66,532.31,29.91ZM444.65,37.7A68.23,68.23,0,0,1,438,43.93c-3.16,2.36-5.61,5.47-8.53,8.08a102.44,102.44,0,0,1-14.1,10.45,11.41,11.41,0,0,1-1.64.82,1,1,0,0,1-1.27-.16c-.33-.38-.15-.82,0-1.2.69-1.47,1.36-3,2.11-4.39a66.06,66.06,0,0,1,13.82-18.26,58.18,58.18,0,0,1,10.65-8A8.74,8.74,0,0,1,443,30.07c1.12,0,2.54,1.34,3,3A4.09,4.09,0,0,1,444.65,37.7Z"></path><path class="cls-1" d="M673,60c-.36-.38-.87-.17-1.28,0a46.33,46.33,0,0,1-4.32,1.8c-3.64,1.09-6.11-.32-7-4.1-1-4-.31-8.06.38-12A74.84,74.84,0,0,1,666,28.94a3,3,0,0,0,.21-2.25c-.82-2.39-4.58-3.66-6.6-2.22a47,47,0,0,0-5.36,4.71,287.09,287.09,0,0,0-21.45,23.71L630,56.32a1,1,0,0,1-.17-.1c.09-.33.17-.67.27-1,1.7-5.52,3.36-11,4.63-16.7a47.81,47.81,0,0,0,1.69-11.6c0-3.16-2.18-5.38-4.8-4.88A6.14,6.14,0,0,0,627,25.32a4.51,4.51,0,0,1-2.48,2.22,19.41,19.41,0,0,1-4.26,1.24,50.09,50.09,0,0,1-12.83.49c-2.8-.2-5.47-.66-7.81-2.45a18.27,18.27,0,0,0-3-1.69c-5.9-3-13.41,2-13.15,8.75a3.17,3.17,0,0,1-.48,1.86,73.18,73.18,0,0,0-5.82,11.09c-1.94,4.8-3.14,9.74-2.37,15a9.42,9.42,0,0,0,7.57,8.27,17,17,0,0,0,9.41-.86c6.94-2.64,12-7.56,15.52-14.09,3.23-6,4.35-12.18,1.07-18.59-.31-.61-.08-.7.48-.73,1.36-.06,2.73-.15,4.09-.27a48.75,48.75,0,0,0,13.21-2.86c1.19-.46,1.24-.47,1.15.82a94.85,94.85,0,0,1-2.65,14.88c-1.63,6.79-3.8,13.43-5.81,20.11-.26.89-.1,1.27.79,1.44a14.05,14.05,0,0,0,5.33-.08,1.76,1.76,0,0,0,1-.68q1.35-1.66,2.71-3.31c6.15-7.46,12.23-15,19-21.92a76.31,76.31,0,0,1,5.59-5.5c.22-.18.46-.51.79-.26s.09.5,0,.76c-.46,2.36-1,4.72-1.35,7.09a41.75,41.75,0,0,0-.1,14.62c.73,3.73,2.52,6.64,6.39,7.73,6.24,1.75,12.11-2.92,14-7C673.17,60.94,673.39,60.4,673,60ZM603.18,49a22.52,22.52,0,0,1-11.9,13,11.61,11.61,0,0,1-3.52.89c-2.56.28-4.49-1.51-4.73-4.35,0-.43,0-.86,0-1.29a23.48,23.48,0,0,1,2.11-9,50,50,0,0,1,6.16-11,1.28,1.28,0,0,1,1.6-.57c2.24.54,4.51,1.1,6.85.58.49-.11.76.19,1.06.51C603.83,41,604.85,44.67,603.18,49Z"></path><path class="cls-1" d="M331.63,53.6c-.82-1.94-2.44-2.35-4.12-1.19l-1.33.91c-5.54,3.65-11.22,7-17.59,8.94-3.63,1.1-7.25,1.39-10.78-.34a8.92,8.92,0,0,1-4.8-4.58,1.42,1.42,0,0,1,.74-2.13c5.72-3.05,11.4-6.21,17.09-9.31a35.72,35.72,0,0,0,9.91-7.37c2.51-2.82,4-6,3.16-9.9a10,10,0,0,0-9.68-7.57,20.23,20.23,0,0,0-11,3.24C297,28,292.45,33.35,288.78,39.56c-2.9,4.89-4.93,10.1-4.68,16,.24,5.56,2.51,9.85,7.58,12.33a21.71,21.71,0,0,0,8.49,2,28.85,28.85,0,0,0,10.94-1.73A74.38,74.38,0,0,0,330.82,57.1C332.17,56.08,332.36,55.34,331.63,53.6Zm-37.27-8.23A40.94,40.94,0,0,1,306.94,29.8a10.8,10.8,0,0,1,4.82-2.27,3.88,3.88,0,0,1,4.09,1.58,3.7,3.7,0,0,1-.35,4.55,30,30,0,0,1-6.71,6.26A56.93,56.93,0,0,1,302,44.21c-2.84,1.56-5.72,3-8.79,4.68A11,11,0,0,1,294.36,45.37Z"></path><path class="cls-1" d="M243.7,49.65c-1.64,1.9-3.08,3.59-4.54,5.25-3.92,4.46-7.87,8.89-12.67,12.39-2.47,1.81-5.12,3.23-8.25,3.31s-5.18-1.58-5.79-4.79a25.84,25.84,0,0,1,.33-10c1.19-6,3.41-11.6,5.57-17.25a44.11,44.11,0,0,0,2.84-9.08,10.87,10.87,0,0,0,.14-1.5c0-2.6,1.19-3.94,3.71-4.14a7.34,7.34,0,0,1,5.4,1.8c1.26,1,1.3,2.8.12,4.65a45,45,0,0,0-3,5.24,105.2,105.2,0,0,0-7.08,21.13,13.32,13.32,0,0,0-.27,4.18c.16,1.58,1,2,2.35,1.14a44.54,44.54,0,0,0,9.66-8.83,100.78,100.78,0,0,0,10.44-13.69,83.79,83.79,0,0,0,5.94-11.15c.86-2.1,4.45-2.61,6.37-.94a6.83,6.83,0,0,1,2.1,4,1.21,1.21,0,0,1-.32.94c-3.15,4.85-4.5,10.33-5.3,16a38.91,38.91,0,0,0-.27,10,8.54,8.54,0,0,0,5.45,7.53c.87.36,1.62.83,1.66,1.84s-.84,1.6-1.69,2c-5,2.09-9.46.65-11.79-4.64-1.63-3.68-1.8-7.59-1.49-11.55C243.45,52.33,243.57,51.15,243.7,49.65Z"></path><path class="cls-1" d="M551.78,71.59c-5.24-.36-10.68-1.51-15.32-5.2a8.22,8.22,0,0,1-3.22-5.45c-.74-5.63,4.82-8.45,8.4-8.08A1.4,1.4,0,0,1,543,53.94a1.61,1.61,0,0,1-.67,1.73c-.58.43-1.25.75-1.81,1.21a2.37,2.37,0,0,0-.89,2.67,6.11,6.11,0,0,0,2.21,3.31,15.62,15.62,0,0,0,12.59,3,4.92,4.92,0,0,0,2.25-1.06,3.16,3.16,0,0,0,1-3.82c-.77-2.05-2.38-3.49-3.65-5.18-4-5.3-8.23-10.4-11.1-16.48a21.67,21.67,0,0,1-2.2-7.9c-.36-5.76,3.35-8.36,6.85-9.44,4-1.23,8-.88,12,0a25.9,25.9,0,0,1,11.88,5.59c1.85,1.6,3.28,3.59,3.21,6.17a8.58,8.58,0,0,1-4.41,7.42,2.52,2.52,0,0,1-3.11-.05,2.8,2.8,0,0,1-.77-3.07,12.92,12.92,0,0,0,.44-2.52A4.55,4.55,0,0,0,565.48,32c-3.86-3.74-8.6-5-13.73-4.71-2.86.18-3.91,2.12-3.31,5.18a22.55,22.55,0,0,0,4.11,8.5c3,4.2,6,8.29,9.12,12.39a21.46,21.46,0,0,1,4,7.78c1,3.9-.19,6.54-3.73,8.34C558.9,71,555.61,71.46,551.78,71.59Z"></path><path class="cls-1" d="M262.78,59.82a48.43,48.43,0,0,1,2.7-14.34c1.55-5,3.61-9.9,5-15,.09-.33.17-.67.26-1,.77-3.06,1.89-4,5-4.22,1.69-.13,3.2,0,4.09,1.79a4.59,4.59,0,0,1-.35,5.33c-2.49,3.23-3.83,7-5.11,10.87a74.23,74.23,0,0,0-3.8,15.08c-.41,3.56,0,6.84,2.94,9.28a1.83,1.83,0,0,1,.64,2.27A2.27,2.27,0,0,1,272,71.3a7.11,7.11,0,0,1-6.32-3A13.2,13.2,0,0,1,262.78,59.82Z"></path><path class="cls-1" d="M281.09,9.17a7.3,7.3,0,0,1,2.53.27c2.43.54,3.35,1.8,3.64,4.91a10.23,10.23,0,0,1,0,1.75,2.89,2.89,0,0,1-2.8,2.85,14.84,14.84,0,0,1-7.61-2.08,2.05,2.05,0,0,1-1-2.31,7.77,7.77,0,0,1,2.85-4.89A3,3,0,0,1,281.09,9.17Z"></path></svg>